<svg xmlns="http://www.w3.org/2000/svg" width="211.3" height="35" viewBox="0 0 211.3 35"><rect class="svg__rect" x="0" y="0" width="106.41" height="35" fill="#31C4F3"/><rect class="svg__rect" x="104.41" y="0" width="106.89" height="35" fill="#EA4560"/><path class="svg__text" d="M15.70 22L14.22 22L14.22 13.47L15.70 13.47L19.51 19.54L19.51 13.47L20.98 13.47L20.98 22L19.50 22L15.70 15.95L15.70 22ZM25.46 18.00L25.46 18.00L25.46 17.52Q25.46 16.28 25.90 15.32Q26.34 14.37 27.15 13.86Q27.95 13.35 28.99 13.35Q30.04 13.35 30.84 13.85Q31.65 14.35 32.09 15.29Q32.53 16.23 32.53 17.48L32.53 17.48L32.53 17.96Q32.53 19.21 32.10 20.16Q31.67 21.10 30.86 21.61Q30.06 22.12 29.01 22.12L29.01 22.12Q27.97 22.12 27.16 21.61Q26.35 21.10 25.90 20.17Q25.46 19.23 25.46 18.00ZM26.94 17.46L26.94 17.96Q26.94 19.36 27.49 20.13Q28.03 20.90 29.01 20.90L29.01 20.90Q29.99 20.90 30.52 20.15Q31.05 19.40 31.05 17.96L31.05 17.96L31.05 17.51Q31.05 16.09 30.52 15.34Q29.98 14.58 28.99 14.58L28.99 14.58Q28.03 14.58 27.49 15.33Q26.95 16.09 26.94 17.46L26.94 17.46ZM38.68 14.66L36.04 14.66L36.04 13.47L42.81 13.47L42.81 14.66L40.15 14.66L40.15 22L38.68 22L38.68 14.66ZM54.03 22L52.54 22L52.54 13.47L57.96 13.47L57.96 14.66L54.03 14.66L54.03 17.20L57.46 17.20L57.46 18.38L54.03 18.38L54.03 22ZM63.61 22L62.12 22L62.12 13.47L65.12 13.47Q66.60 13.47 67.40 14.13Q68.21 14.79 68.21 16.05L68.21 16.05Q68.21 16.90 67.79 17.48Q67.38 18.06 66.64 18.37L66.64 18.37L68.56 21.92L68.56 22L66.97 22L65.26 18.71L63.61 18.71L63.61 22ZM63.61 14.66L63.61 17.52L65.13 17.52Q65.88 17.52 66.30 17.15Q66.72 16.77 66.72 16.11L66.72 16.11Q66.72 15.43 66.33 15.05Q65.94 14.68 65.17 14.66L65.17 14.66L63.61 14.66ZM72.33 18.00L72.33 18.00L72.33 17.52Q72.33 16.28 72.77 15.32Q73.22 14.37 74.02 13.86Q74.83 13.35 75.87 13.35Q76.91 13.35 77.72 13.85Q78.52 14.35 78.96 15.29Q79.40 16.23 79.41 17.48L79.41 17.48L79.41 17.96Q79.41 19.21 78.97 20.16Q78.54 21.10 77.74 21.61Q76.93 22.12 75.88 22.12L75.88 22.12Q74.84 22.12 74.03 21.61Q73.22 21.10 72.78 20.17Q72.34 19.23 72.33 18.00ZM73.81 17.46L73.81 17.96Q73.81 19.36 74.36 20.13Q74.91 20.90 75.88 20.90L75.88 20.90Q76.87 20.90 77.40 20.15Q77.93 19.40 77.93 17.96L77.93 17.96L77.93 17.51Q77.93 16.09 77.39 15.34Q76.85 14.58 75.87 14.58L75.87 14.58Q74.91 14.58 74.37 15.33Q73.82 16.09 73.81 17.46L73.81 17.46ZM85.35 22L83.87 22L83.87 13.47L85.80 13.47L88.26 20.01L90.71 13.47L92.63 13.47L92.63 22L91.15 22L91.15 19.19L91.30 15.43L88.78 22L87.72 22L85.20 15.43L85.35 19.19L85.35 22Z" fill="#FFFFFF"/><path class="svg__text" d="M118.01 21.24L118.01 21.24L118.79 19.49Q119.35 19.86 120.10 20.09Q120.84 20.32 121.56 20.32L121.56 20.32Q122.93 20.32 122.93 19.64L122.93 19.64Q122.93 19.28 122.54 19.11Q122.15 18.93 121.29 18.74L121.29 18.74Q120.34 18.53 119.70 18.30Q119.07 18.06 118.61 17.55Q118.16 17.03 118.16 16.16L118.16 16.16Q118.16 15.39 118.58 14.77Q119.00 14.15 119.83 13.79Q120.67 13.43 121.87 13.43L121.87 13.43Q122.70 13.43 123.51 13.62Q124.31 13.80 124.93 14.17L124.93 14.17L124.19 15.93Q122.99 15.28 121.86 15.28L121.86 15.28Q121.15 15.28 120.83 15.49Q120.51 15.70 120.51 16.04L120.51 16.04Q120.51 16.37 120.89 16.54Q121.28 16.71 122.13 16.89L122.13 16.89Q123.09 17.10 123.72 17.33Q124.35 17.56 124.81 18.07Q125.27 18.58 125.27 19.46L125.27 19.46Q125.27 20.21 124.85 20.83Q124.43 21.44 123.59 21.80Q122.75 22.17 121.55 22.17L121.55 22.17Q120.53 22.17 119.57 21.92Q118.61 21.67 118.01 21.24ZM129.42 17.80L129.42 17.80Q129.42 16.54 130.02 15.54Q130.62 14.55 131.67 13.99Q132.72 13.43 134.04 13.43L134.04 13.43Q135.19 13.43 136.11 13.84Q137.04 14.25 137.65 15.02L137.65 15.02L136.14 16.39Q135.33 15.40 134.16 15.40L134.16 15.40Q133.47 15.40 132.94 15.70Q132.41 16 132.11 16.54Q131.82 17.09 131.82 17.80L131.82 17.80Q131.82 18.51 132.11 19.05Q132.41 19.60 132.94 19.90Q133.47 20.20 134.16 20.20L134.16 20.20Q135.33 20.20 136.14 19.22L136.14 19.22L137.65 20.58Q137.04 21.35 136.12 21.76Q135.19 22.17 134.04 22.17L134.04 22.17Q132.72 22.17 131.67 21.61Q130.62 21.05 130.02 20.05Q129.42 19.06 129.42 17.80ZM144.57 22L142.19 22L142.19 13.60L146.03 13.60Q147.17 13.60 148.01 13.98Q148.85 14.35 149.31 15.06Q149.76 15.76 149.76 16.71L149.76 16.71Q149.76 17.62 149.34 18.30Q148.91 18.98 148.12 19.36L148.12 19.36L149.93 22L147.38 22L145.86 19.77L144.57 19.77L144.57 22ZM144.57 15.47L144.57 17.93L145.88 17.93Q146.62 17.93 146.99 17.61Q147.36 17.29 147.36 16.71L147.36 16.71Q147.36 16.12 146.99 15.79Q146.62 15.47 145.88 15.47L145.88 15.47L144.57 15.47ZM155.97 22L153.54 22L157.25 13.60L159.60 13.60L163.31 22L160.84 22L160.18 20.37L156.63 20.37L155.97 22ZM158.41 15.93L157.32 18.61L159.48 18.61L158.41 15.93ZM169.26 15.48L166.67 15.48L166.67 13.60L174.20 13.60L174.20 15.48L171.63 15.48L171.63 22L169.26 22L169.26 15.48ZM178.14 17.80L178.14 17.80Q178.14 16.54 178.74 15.54Q179.34 14.55 180.39 13.99Q181.44 13.43 182.76 13.43L182.76 13.43Q183.91 13.43 184.84 13.84Q185.76 14.25 186.37 15.02L186.37 15.02L184.86 16.39Q184.05 15.40 182.88 15.40L182.88 15.40Q182.20 15.40 181.66 15.70Q181.13 16 180.83 16.54Q180.54 17.09 180.54 17.80L180.54 17.80Q180.54 18.51 180.83 19.05Q181.13 19.60 181.66 19.90Q182.20 20.20 182.88 20.20L182.88 20.20Q184.05 20.20 184.86 19.22L184.86 19.22L186.37 20.58Q185.76 21.35 184.84 21.76Q183.91 22.17 182.76 22.17L182.76 22.17Q181.44 22.17 180.39 21.61Q179.34 21.05 178.74 20.05Q178.14 19.06 178.14 17.80ZM193.29 22L190.91 22L190.91 13.60L193.29 13.60L193.29 16.76L196.53 16.76L196.53 13.60L198.90 13.60L198.90 22L196.53 22L196.53 18.72L193.29 18.72L193.29 22Z" fill="#FFFFFF" x="117.41"/></svg>